<?xml version="1.0" standalone="no"?>
<!DOCTYPE svg PUBLIC "-//W3C//DTD SVG 20010904//EN"
 "http://www.w3.org/TR/2001/REC-SVG-20010904/DTD/svg10.dtd">
<svg version="1.0" xmlns="http://www.w3.org/2000/svg"
 width="513.000000pt" height="486.000000pt" viewBox="0 0 513.000000 486.000000"
 preserveAspectRatio="xMidYMid meet">

<g transform="translate(0.000000,486.000000) scale(0.100000,-0.100000)"
fill="#000000" stroke="none">
<path d="M3330 4578 c-199 -46 -374 -110 -478 -175 -29 -18 -55 -33 -58 -33
-3 0 -47 -31 -97 -68 -83 -62 -194 -168 -274 -261 l-29 -33 -68 21 c-37 12
-90 21 -116 21 -65 0 -167 -33 -220 -71 -23 -17 -132 -120 -241 -230 -206
-206 -220 -227 -181 -262 18 -17 85 -46 226 -99 49 -18 91 -38 93 -45 3 -7
-33 -48 -79 -92 -79 -75 -82 -80 -73 -107 7 -18 24 -35 48 -47 20 -9 37 -20
37 -23 0 -3 -18 -38 -40 -79 -50 -90 -79 -185 -87 -288 -5 -67 -4 -80 13 -98
17 -20 26 -21 106 -15 100 7 150 22 268 79 47 23 88 43 93 45 4 2 12 -10 18
-27 13 -37 55 -62 84 -51 11 4 51 40 87 79 37 39 72 71 78 71 12 0 11 2 80
-174 28 -72 58 -138 67 -148 37 -41 55 -28 279 196 188 188 218 223 247 283
30 63 32 76 32 168 -1 74 -5 108 -18 132 -9 18 -17 36 -17 41 0 5 33 37 73 72
259 224 441 549 492 879 15 96 16 124 6 179 -17 90 -33 116 -88 143 -55 27
-184 35 -263 17z m218 -130 c20 -25 23 -85 8 -183 -16 -110 -27 -126 -94 -145
-55 -15 -82 -12 -139 14 -76 36 -108 88 -108 177 0 87 21 118 91 135 69 16
229 17 242 2z m-458 -138 c0 -91 31 -164 99 -230 66 -65 127 -90 219 -90 76 0
76 -2 21 -113 -53 -107 -72 -137 -140 -227 -193 -256 -519 -454 -781 -476
l-83 -6 -78 78 -78 79 4 80 c6 97 50 233 113 352 123 234 324 434 555 554 142
74 149 74 149 -1z m-824 -390 c11 0 28 -6 39 -13 17 -13 16 -17 -16 -73 -64
-110 -139 -332 -139 -410 0 -17 -6 -24 -19 -24 -21 0 -159 47 -176 60 -5 4
-35 15 -65 24 -86 28 -150 57 -150 70 0 14 305 317 344 340 31 20 110 36 141
30 11 -2 29 -4 41 -4z m-159 -652 c81 -30 213 -157 254 -245 16 -35 29 -67 29
-72 0 -16 -83 -121 -96 -121 -7 0 -22 14 -34 30 -31 43 -64 40 -132 -13 -94
-73 -266 -142 -300 -121 -28 17 39 193 111 292 61 83 64 110 19 146 l-32 25
24 27 c19 20 82 68 97 73 0 1 27 -9 60 -21z m919 -115 c8 -45 0 -101 -21 -149
-19 -41 -330 -364 -351 -364 -7 0 -33 55 -59 123 -26 67 -60 155 -76 196 -16
40 -27 77 -24 81 2 4 29 10 58 14 49 5 160 34 212 55 11 4 67 31 125 59 116
56 123 55 136 -15z"/>
<path d="M2815 4106 c-85 -23 -121 -43 -168 -96 -124 -138 -114 -356 23 -469
79 -66 104 -75 215 -75 84 -1 107 3 141 21 96 51 154 125 180 228 15 59 16 77
5 129 -37 185 -223 308 -396 262z m194 -155 c55 -44 81 -96 81 -163 -1 -225
-296 -288 -391 -83 -35 76 -18 165 43 223 54 52 83 63 159 59 57 -2 71 -7 108
-36z"/>
<path d="M2070 4398 l-161 -161 38 -39 c20 -21 42 -38 48 -38 17 0 315 304
315 321 0 9 -18 30 -39 47 l-39 32 -162 -162z"/>
<path d="M1762 4092 l-53 -56 43 -43 42 -43 58 57 c32 32 58 62 58 68 0 16
-64 75 -80 74 -8 0 -39 -26 -68 -57z"/>
<path d="M703 4031 c-112 -41 -173 -101 -213 -212 -19 -52 -20 -85 -20 -1241
0 -1179 0 -1188 21 -1243 38 -101 122 -185 217 -217 28 -9 215 -13 740 -16
l702 -3 0 -164 0 -165 -25 -16 c-14 -9 -43 -20 -63 -24 -319 -65 -350 -77
-421 -149 -78 -80 -115 -217 -71 -261 20 -20 31 -20 1051 -18 l1032 3 20 27
c19 25 19 29 3 98 -24 106 -97 194 -192 231 -28 10 -224 54 -313 69 -30 5 -53
16 -68 34 -21 25 -23 36 -23 147 l0 119 -60 0 -60 0 0 -127 c0 -114 3 -134 24
-180 29 -62 78 -98 156 -113 303 -61 344 -76 390 -140 19 -26 20 -34 9 -41
-18 -11 -1820 -11 -1838 0 -12 7 -10 15 7 43 33 53 83 74 271 112 197 41 236
60 273 136 21 40 23 62 26 213 l3 167 1074 0 c727 0 1091 3 1127 11 138 28
222 102 268 238 20 59 20 80 20 1228 0 1247 1 1203 -48 1299 -28 54 -97 118
-157 146 -49 23 -58 23 -422 26 l-373 3 0 -60 0 -60 358 -3 c231 -2 366 -7
382 -15 47 -20 106 -87 119 -134 9 -33 11 -296 9 -1094 l-3 -1050 -1677 -3
-1678 -2 0 -60 0 -60 1678 -2 1677 -3 3 -43 c7 -93 -47 -181 -132 -216 -35
-14 -220 -16 -1890 -16 -1774 0 -1853 1 -1891 19 -85 39 -128 109 -123 201 l3
55 130 5 130 5 3 57 3 57 -133 3 -133 3 -3 1065 -2 1066 22 44 c31 60 81 97
147 110 31 6 220 10 442 10 l389 0 0 60 0 60 -422 0 c-387 -1 -427 -2 -475
-19z"/>
<path d="M3410 3255 l-224 -225 39 -40 c21 -22 42 -40 46 -40 3 0 108 102 233
226 l228 227 -38 38 c-21 22 -43 39 -49 39 -5 0 -111 -101 -235 -225z"/>
<path d="M3146 2721 c-113 -113 -156 -163 -150 -172 11 -18 66 -64 76 -64 7 0
250 237 303 294 18 21 18 22 -20 61 -22 22 -42 40 -45 40 -3 0 -77 -72 -164
-159z"/>
<path d="M963 2519 c-53 -10 -91 -30 -124 -66 -23 -25 -49 -80 -49 -104 0 -5
27 -9 61 -9 58 0 60 1 71 30 13 37 54 60 108 60 59 0 100 -42 100 -102 0 -76
-52 -118 -145 -118 l-46 0 3 -42 3 -43 68 -5 c62 -5 72 -8 98 -38 24 -26 29
-41 29 -81 0 -43 -4 -52 -35 -80 -62 -54 -162 -36 -191 35 -14 33 -15 34 -74
34 l-59 0 5 -32 c10 -54 47 -101 104 -132 45 -24 63 -28 129 -28 92 0 153 24
198 76 37 41 48 85 40 159 -4 47 -9 56 -56 98 l-51 45 31 23 c96 71 91 220 -9
285 -51 34 -135 48 -209 35z"/>
<path d="M1560 2518 c-68 -10 -115 -46 -150 -114 -23 -45 -25 -61 -28 -211 -4
-183 6 -249 46 -308 42 -60 99 -88 182 -87 159 1 226 88 237 311 15 309 -77
440 -287 409z m113 -108 c42 -33 52 -80 52 -250 0 -102 -5 -168 -13 -192 -38
-109 -170 -103 -201 8 -15 53 -14 327 1 376 6 22 23 48 36 59 33 25 92 25 125
-1z"/>
<path d="M2846 2421 c-31 -31 -56 -61 -56 -67 0 -14 63 -74 78 -74 18 0 121
112 115 126 -2 6 -21 25 -42 42 l-38 31 -57 -58z"/>
<path d="M4110 2240 c0 -49 -2 -90 -5 -90 -4 0 -20 7 -37 16 -62 32 -137 2
-176 -71 -23 -43 -22 -168 2 -217 34 -70 122 -99 187 -61 27 16 29 16 42 -1 9
-12 23 -17 42 -14 l30 3 3 263 2 262 -45 0 -45 0 0 -90z m-17 -148 c23 -21 25
-182 2 -206 -37 -37 -103 -26 -124 20 -17 38 -14 145 5 172 30 43 78 48 117
14z"/>
<path d="M2043 2169 c-41 -12 -83 -62 -83 -99 0 -47 38 -81 126 -109 75 -25
79 -27 79 -56 0 -23 -7 -33 -28 -43 -35 -17 -93 0 -102 29 -5 14 -16 19 -46
19 -45 0 -50 -14 -18 -54 31 -39 71 -56 134 -56 92 0 145 40 145 110 0 54 -44
90 -136 110 -56 13 -74 25 -74 51 0 51 84 68 118 24 15 -18 29 -25 56 -25 42
0 46 14 14 55 -38 49 -109 66 -185 44z"/>
<path d="M2411 2158 c-66 -35 -94 -92 -89 -183 2 -54 9 -78 26 -103 52 -73
166 -95 242 -47 43 27 49 41 24 60 -13 9 -24 8 -53 -7 -61 -32 -130 -9 -153
51 -13 36 2 41 125 41 l107 0 0 46 c0 129 -118 202 -229 142z m132 -70 c9 -11
17 -31 17 -44 0 -23 -3 -24 -75 -24 -71 0 -75 1 -75 23 0 27 8 38 40 60 30 21
67 15 93 -15z"/>
<path d="M2815 2173 c-135 -34 -158 -268 -36 -350 40 -27 116 -31 161 -8 35
18 70 61 70 86 0 31 -53 25 -88 -11 -37 -36 -71 -38 -108 -7 -23 20 -28 34
-32 83 -8 112 43 174 115 140 17 -8 34 -24 38 -35 5 -16 15 -21 41 -21 30 0
34 3 34 26 0 17 -12 38 -34 59 -43 40 -99 53 -161 38z"/>
<path d="M3175 2166 c-126 -56 -142 -267 -26 -341 79 -49 178 -29 235 48 18
24 21 43 21 115 0 76 -3 91 -24 121 -43 61 -138 87 -206 57z m117 -75 c32 -28
33 -32 33 -106 0 -72 -2 -78 -28 -101 -31 -26 -54 -30 -90 -13 -33 15 -48 44
-53 103 -6 60 17 114 56 133 36 18 46 16 82 -16z"/>
<path d="M3616 2160 c-35 -19 -40 -20 -48 -6 -6 10 -22 16 -44 16 l-34 0 2
-182 3 -183 35 0 35 0 5 138 c4 122 7 140 24 153 31 22 82 21 106 -2 12 -11
16 -47 18 -155 l4 -140 36 3 37 3 3 105 c6 205 -13 258 -98 267 -34 3 -55 -1
-84 -17z"/>
<path d="M4360 2167 c-46 -16 -83 -71 -76 -112 8 -43 44 -69 125 -94 89 -27
108 -52 66 -89 -35 -29 -79 -24 -112 13 -16 18 -32 25 -58 25 -40 0 -40 -1
-20 -40 50 -97 236 -95 283 4 17 34 9 71 -23 100 -22 20 -42 29 -142 58 -39
11 -48 33 -28 64 11 18 25 24 50 24 32 0 65 -21 65 -41 0 -5 18 -9 40 -9 34 0
40 3 40 21 0 11 -14 33 -31 49 -45 41 -110 51 -179 27z"/>
<path d="M1010 1570 l0 -61 63 3 62 3 3 58 3 57 -66 0 -65 0 0 -60z"/>
</g>
</svg>
